<?xml version="1.0" encoding="UTF-8" standalone="no"?>
<!DOCTYPE svg PUBLIC "-//W3C//DTD SVG 1.1//EN" "http://www.w3.org/Graphics/SVG/1.1/DTD/svg11.dtd">
<svg width="100%" height="100%" viewBox="0 0 512 512" version="1.1" xmlns="http://www.w3.org/2000/svg" xmlns:xlink="http://www.w3.org/1999/xlink" xml:space="preserve" style="fill-rule:evenodd;clip-rule:evenodd;stroke-linejoin:round;stroke-miterlimit:1.41421;">
    <path d="M256,32C132.3,32 32,134.9 32,261.7C32,363.2 96.2,449.2 185.2,479.6C186.6,479.9 187.8,480 189,480C197.3,480 200.5,473.9 200.5,468.6C200.5,463.1 200.3,448.7 200.2,429.5C191.8,431.4 184.3,432.2 177.6,432.2C134.5,432.2 124.7,398.7 124.7,398.7C114.5,372.2 99.8,365.1 99.8,365.1C80.3,351.4 99.7,351 101.2,351L101.3,351C123.8,353 135.6,374.8 135.6,374.8C146.8,394.4 161.8,399.9 175.2,399.9C185.7,399.9 195.2,396.5 200.8,393.9C202.8,379.1 208.6,369 215,363.2C165.3,357.4 113,337.7 113,249.7C113,224.6 121.7,204.1 136,188.1C133.7,182.3 126,158.9 138.2,127.3C138.2,127.3 139.8,126.8 143.2,126.8C151.3,126.8 169.6,129.9 199.8,150.9C217.7,145.8 236.8,143.3 255.9,143.2C274.9,143.3 294.1,145.8 312,150.9C342.2,129.9 360.5,126.8 368.6,126.8C372,126.8 373.6,127.3 373.6,127.3C385.8,158.9 378.1,182.3 375.8,188.1C390.1,204.2 398.8,224.7 398.8,249.7C398.8,337.9 346.4,357.3 296.5,363C304.5,370.1 311.7,384.1 311.7,405.5C311.7,436.2 311.4,461 311.4,468.5C311.4,473.9 314.5,480 322.8,480C324,480 325.4,479.9 326.8,479.6C415.9,449.2 480,363.1 480,261.7C480,134.9 379.7,32 256,32Z" style="fill-rule:nonzero;"/>
</svg>
