<?xml version="1.0" encoding="UTF-8" standalone="no"?>
<!DOCTYPE svg PUBLIC "-//W3C//DTD SVG 1.1//EN" "http://www.w3.org/Graphics/SVG/1.1/DTD/svg11.dtd">
<svg width="100%" height="100%" viewBox="0 0 100 100" version="1.1" xmlns="http://www.w3.org/2000/svg" xmlns:xlink="http://www.w3.org/1999/xlink" xml:space="preserve" style="fill-rule:evenodd;clip-rule:evenodd;stroke-linejoin:round;stroke-miterlimit:1.41421;">
    <g transform="matrix(0.260417,0,0,0.260417,-16.7969,-16.7969)">
        <circle cx="256" cy="255.833" r="80" style="fill:white;"/>
        <path d="M177.805,176.887C198.959,155.733 227.084,143.958 257,143.958C286.916,143.958 315.041,155.795 336.195,176.949C349.617,190.371 359.206,206.5 364.427,224.5L448.5,224.5L448.5,111.5C448.5,84.99 428.01,64.5 401.5,64.5L113.5,64.5C86.99,64.5 64.5,84.99 64.5,111.5L64.5,224.5L149.572,224.5C154.794,206.5 164.383,190.309 177.805,176.887ZM416.5,147.7C416.5,154.769 410.77,160.5 403.7,160.5L365.3,160.5C358.231,160.5 352.5,154.77 352.5,147.7L352.5,109.3C352.5,102.231 358.23,96.5 365.3,96.5L403.7,96.5C410.769,96.5 416.5,102.23 416.5,109.3L416.5,147.7Z" style="fill:white;fill-rule:nonzero;"/>
        <path d="M336.195,335.279C315.041,356.433 286.916,367.958 257,367.958C227.084,367.958 198.959,356.496 177.805,335.342C156.69,314.227 145.046,285.5 145.002,256.5L64.5,256.5L64.5,399.5C64.5,426.01 86.99,448.5 113.5,448.5L401.5,448.5C428.01,448.5 448.5,426.01 448.5,399.5L448.5,256.5L368.998,256.5C368.955,285.5 357.311,314.164 336.195,335.279Z" style="fill:white;fill-rule:nonzero;"/>
    </g>
</svg>
