<?xml version="1.0" encoding="UTF-8" standalone="no"?>
<!DOCTYPE svg PUBLIC "-//W3C//DTD SVG 1.1//EN" "http://www.w3.org/Graphics/SVG/1.1/DTD/svg11.dtd">
<svg width="100%" height="100%" viewBox="0 0 100 100" version="1.1" xmlns="http://www.w3.org/2000/svg" xmlns:xlink="http://www.w3.org/1999/xlink" xml:space="preserve" style="fill-rule:evenodd;clip-rule:evenodd;stroke-linejoin:round;stroke-miterlimit:1.41421;">
    <g transform="matrix(0.211909,0,0,0.211909,-4.25938,-4.2622)">
        <path d="M492,109.5C474.6,117.2 456,122.4 436.4,124.8C456.4,112.8 471.8,93.8 479,71.2C460.3,82.3 439.6,90.4 417.5,94.7C399.8,75.8 374.6,64 346.8,64C293.3,64 250,107.4 250,160.9C250,168.5 250.8,175.9 252.5,183C172,179 100.6,140.4 52.9,81.7C44.6,96 39.8,112.7 39.8,130.4C39.8,164 57,193.7 83,211.1C67,210.7 52,206.3 39,199C39,199.4 39,199.8 39,200.2C39,247.2 72.4,286.3 116.7,295.2C108.6,297.4 100,298.6 91.2,298.6C85,298.6 78.9,298 73,296.8C85.3,335.3 121.1,363.3 163.5,364.1C130.4,390.1 88.6,405.6 43.2,405.6C35.4,405.6 27.7,405.1 20.1,404.2C62.8,432 113.7,448 168.3,448C346.6,448 444,300.3 444,172.2C444,168 443.9,163.8 443.7,159.7C462.6,146 479,129 492,109.5Z" style="fill:white;fill-rule:nonzero;"/>
    </g>
</svg>
