<?xml version="1.0" encoding="UTF-8" standalone="no"?>
<!DOCTYPE svg PUBLIC "-//W3C//DTD SVG 1.1//EN" "http://www.w3.org/Graphics/SVG/1.1/DTD/svg11.dtd">
<svg width="100%" height="100%" viewBox="0 0 100 100" version="1.1" xmlns="http://www.w3.org/2000/svg" xmlns:xlink="http://www.w3.org/1999/xlink" xml:space="preserve" style="fill-rule:evenodd;clip-rule:evenodd;stroke-linejoin:round;stroke-miterlimit:1.41421;">
    <g transform="matrix(0.260417,0,0,0.260417,-16.6667,-16.6667)">
        <path d="M259,271.3L226.2,367L226.1,367L200.7,440.1C202.5,440.6 204.2,441 206,441.5C206.1,441.5 206.2,441.5 206.3,441.5C222.1,445.7 238.7,448 255.8,448C264.3,448 272.6,447.5 280.7,446.2C291.9,444.8 302.7,442.4 313.2,439.1C315.8,438.3 318.4,437.4 321,436.5C318.2,430.5 312.2,417.2 311.9,416.6L259,271.3Z" style="fill:white;fill-rule:nonzero;"/>
        <path d="M80.8,180.5C70.8,203.1 64,230.9 64,256C64,262.3 64.3,268.6 64.9,274.8C71.8,346 117.8,405.8 181,432.7C183.6,433.8 186.3,434.9 189,435.9L96,180.6C88,180.3 86.5,180.8 80.8,180.5Z" style="fill:white;fill-rule:nonzero;"/>
        <path d="M430.2,175.4C425.9,166.1 420.8,157.2 415.1,148.8C413.5,146.4 411.7,144 410,141.6C388.5,112.8 359.2,90.2 325.1,77C303.7,68.6 280.3,64 255.9,64C195.6,64 141.7,92 106.5,135.7C100,143.7 94.2,152.3 89,161.3C103.2,161.4 120.8,161.4 122.8,161.4C140.9,161.4 168.8,159.2 168.8,159.2C178.2,158.6 179.2,172.3 169.9,173.4C169.9,173.4 160.5,174.5 150.1,175L213,362L250.8,248.7L224,175.1C214.6,174.6 205.9,173.5 205.9,173.5C196.5,173 197.7,158.7 206.9,159.3C206.9,159.3 235.4,161.5 252.4,161.5C270.5,161.5 298.4,159.3 298.4,159.3C307.7,158.7 308.9,172.4 299.5,173.5C299.5,173.5 290.2,174.6 279.8,175.1L342.1,360.7L359.4,303.1C368.1,280.7 372.5,262.2 372.5,247.4C372.5,226.1 364.8,211.3 358.2,199.8C349.5,185.5 341.3,173.5 341.3,159.4C341.3,143.5 353.3,128.7 370.3,128.7C371,128.7 371.8,128.7 372.5,128.7C398.7,128 407.3,154 408.4,171.7C408.4,171.7 408.4,172.1 408.4,172.3C408.8,179.5 408.5,184.8 408.5,191.1C408.5,208.5 405.2,228.2 395.4,252.9L356.4,365.7L334.1,431.4C335.9,430.6 337.6,429.8 339.4,428.9C396.1,401.5 437.4,346.9 446.1,282.2C447.4,273.7 448,265 448,256.2C448,227.3 441.6,199.9 430.2,175.4Z" style="fill:white;fill-rule:nonzero;"/>
    </g>
</svg>
