<svg fill="none" height="512" viewBox="0 0 512 512" width="512" xmlns="http://www.w3.org/2000/svg"><rect fill="#f9f9f7" height="512" rx="112" width="512"/><g fill="#111"><path d="m202.624 335.48c-2.416 0-3.624-1.107-3.624-3.322 0-2.013 1.107-3.221 3.322-3.624l4.228-.604c4.228-.604 7.349-1.812 9.362-3.624s3.02-4.832 3.02-9.06v-173.046c0-3.624-.604-6.141-1.812-7.55-1.007-1.409-2.919-2.215-5.738-2.416l-6.946-.906c-2.215-.403-3.322-1.611-3.322-3.624s1.107-3.221 3.322-3.624c5.637-1.208 10.469-2.617 14.496-4.228s7.349-3.221 9.966-4.832c3.221-2.013 5.637-3.02 7.248-3.02 2.215 0 3.322 1.611 3.322 4.832v198.414c0 4.228.604 7.248 1.812 9.06 1.409 1.611 4.228 2.718 8.456 3.322l6.946.906c2.215.403 3.322 1.611 3.322 3.624 0 2.215-1.208 3.322-3.624 3.322z"/><path d="m297.369 152.77c-4.429 0-8.053-1.51-10.872-4.53-2.818-3.221-4.228-7.047-4.228-11.476 0-4.631 1.41-8.355 4.228-11.174 2.819-3.02 6.443-4.53 10.872-4.53 4.43 0 7.953 1.51 10.57 4.53 2.819 2.819 4.228 6.543 4.228 11.174s-1.409 8.456-4.228 11.476c-2.818 3.02-6.342 4.53-10.57 4.53zm-33.22 247.64c-5.838 0-10.67-1.51-14.496-4.53-3.825-3.02-5.738-6.946-5.738-11.778 0-3.423 1.108-6.443 3.322-9.06 2.014-2.416 4.832-3.624 8.456-3.624 3.222 0 5.537.805 6.946 2.416 1.41 1.812 2.517 3.825 3.322 6.04.806 2.215 1.812 4.127 3.02 5.738 1.41 1.812 3.423 2.718 6.04 2.718 3.826 0 6.745-2.215 8.758-6.644 2.014-4.429 3.02-10.671 3.02-18.724v-149.188c0-3.624-.604-6.04-1.812-7.248-1.006-1.409-2.919-2.315-5.738-2.718l-6.342-.906c-2.617-.201-3.926-1.309-3.926-3.322 0-1.611 1.611-2.718 4.832-3.322 6.242-1.007 11.275-2.617 15.1-4.832 3.826-2.215 7.55-4.933 11.174-8.154 1.812-1.812 3.322-2.718 4.53-2.718 1.812 0 2.718 1.208 2.718 3.624v138.014c0 24.16-3.926 43.186-11.778 57.078-7.852 14.093-18.321 21.14-31.408 21.14z"/></g></svg>