<svg viewBox="0 0 287 287" xmlns="http://www.w3.org/2000/svg" fill-rule="evenodd" clip-rule="evenodd" stroke-linejoin="round" stroke-miterlimit="1.414"><path d="M264.33 143c0-66.98-54.3-121.29-121.29-121.29C76.06 21.7 21.8 76 21.8 143s54.3 121.3 121.3 121.3c66.93 0 121.2-54.3 121.2-121.3h.03zM143.04.31c78.81 0 142.7 63.9 142.7 142.69 0 78.81-63.881 142.7-142.69 142.7C64.23 285.7.3 221.8.3 143 .35 64.2 64.2.3 143 .31h.04z"/><path d="M114.5 43.1h21.4v171.2h-21.4zm35.7 35.7h21.4v164.1h-21.4z"/></svg>