<svg xmlns="http://www.w3.org/2000/svg" xmlns:xlink="http://www.w3.org/1999/xlink"><symbol viewBox="0 0 24 24" id="add"><path d="M0 0h24v24H0z" fill="none"/><path d="M13 7h-2v4H7v2h4v4h2v-4h4v-2h-4V7zm-1-5C6.48 2 2 6.48 2 12s4.48 10 10 10 10-4.48 10-10S17.52 2 12 2zm0 18c-4.41 0-8-3.59-8-8s3.59-8 8-8 8 3.59 8 8-3.59 8-8 8z"/></symbol><symbol viewBox="0 0 24 24" id="camera"><circle cx="12" cy="12" r="3.2"/><path d="M9 2L7.17 4H4c-1.1 0-2 .9-2 2v12c0 1.1.9 2 2 2h16c1.1 0 2-.9 2-2V6c0-1.1-.9-2-2-2h-3.17L15 2H9zm3 15c-2.76 0-5-2.24-5-5s2.24-5 5-5 5 2.24 5 5-2.24 5-5 5z"/><path d="M0 0h24v24H0z" fill="none"/></symbol><symbol viewBox="0 0 24 24" id="exposure"><path d="M0 0h24v24H0z" fill="none"/><path d="M15 17v2h2v-2h2v-2h-2v-2h-2v2h-2v2h2zm5-15H4c-1.1 0-2 .9-2 2v16c0 1.1.9 2 2 2h16c1.1 0 2-.9 2-2V4c0-1.1-.9-2-2-2zM5 5h6v2H5V5zm15 15H4L20 4v16z"/></symbol><symbol viewBox="0 0 24 24" id="fnumber"><path d="M0 0h24v24H0z" fill="none"/><path d="M9.4 10.5l4.77-8.26a9.984 9.984 0 0 0-8.49 2.01l3.66 6.35.06-.1zM21.54 9c-.92-2.92-3.15-5.26-6-6.34L11.88 9h9.66zm.26 1h-7.49l.29.5 4.76 8.25A9.91 9.91 0 0 0 22 12c0-.69-.07-1.35-.2-2zM8.54 12l-3.9-6.75A9.958 9.958 0 0 0 2.2 14h7.49l-1.15-2zm-6.08 3c.92 2.92 3.15 5.26 6 6.34L12.12 15H2.46zm11.27 0l-3.9 6.76a9.984 9.984 0 0 0 8.49-2.01l-3.66-6.35-.93 1.6z"/></symbol><symbol viewBox="0 0 100 100" fill-rule="evenodd" clip-rule="evenodd" stroke-linejoin="round" stroke-miterlimit="1.414" id="github"><path d="M50 0C22.388 0 0 22.969 0 51.272c0 22.656 14.33 41.853 34.196 48.639.313.067.58.089.849.089 1.852 0 2.567-1.362 2.567-2.545 0-1.227-.045-4.442-.067-8.727-1.875.424-3.55.602-5.045.602-9.62 0-11.808-7.477-11.808-7.477-2.277-5.916-5.558-7.5-5.558-7.5-4.353-3.058-.022-3.148.312-3.148h.023c5.022.447 7.656 5.313 7.656 5.313 2.5 4.375 5.848 5.602 8.84 5.602 2.343 0 4.464-.759 5.714-1.339.446-3.303 1.74-5.558 3.17-6.853-11.095-1.294-22.769-5.691-22.769-25.334 0-5.603 1.942-10.179 5.134-13.75-.513-1.295-2.232-6.518.491-13.572 0 0 .357-.111 1.116-.111 1.808 0 5.893.692 12.634 5.38 3.996-1.14 8.26-1.697 12.523-1.72 4.24.023 8.526.58 12.522 1.72 6.741-4.688 10.826-5.38 12.634-5.38.759 0 1.116.111 1.116.111 2.723 7.054 1.004 12.277.491 13.572 3.192 3.593 5.134 8.17 5.134 13.75 0 19.687-11.697 24.018-22.835 25.29 1.786 1.585 3.393 4.71 3.393 9.486 0 6.853-.067 12.389-.067 14.063 0 1.205.692 2.567 2.545 2.567.267 0 .58-.022.892-.09C85.692 93.126 100 73.907 100 51.273 100 22.97 77.61 0 50 0z" fill="#fff" fill-rule="nonzero"/></symbol><symbol viewBox="0 0 24 24" id="info"><path d="M0 0h24v24H0z" fill="none"/><path d="M11 17h2v-6h-2v6zm1-15C6.48 2 2 6.48 2 12s4.48 10 10 10 10-4.48 10-10S17.52 2 12 2zm0 18c-4.41 0-8-3.59-8-8s3.59-8 8-8 8 3.59 8 8-3.59 8-8 8zM11 9h2V7h-2v2z"/></symbol><symbol viewBox="0 0 100 100" fill-rule="evenodd" clip-rule="evenodd" stroke-linejoin="round" stroke-miterlimit="1.414" id="instagram"><g transform="matrix(.26042 0 0 .26042 -16.797 -16.797)" fill="#fff"><circle cx="256" cy="255.833" r="80"/><path d="M177.805 176.887c21.154-21.154 49.279-32.929 79.195-32.929 29.916 0 58.041 11.837 79.195 32.991 13.422 13.422 23.011 29.551 28.232 47.551H448.5v-113c0-26.51-20.49-47-47-47h-288c-26.51 0-49 20.49-49 47v113h85.072c5.222-18 14.811-34.191 28.233-47.613zM416.5 147.7c0 7.069-5.73 12.8-12.8 12.8h-38.4c-7.069 0-12.8-5.73-12.8-12.8v-38.4c0-7.069 5.73-12.8 12.8-12.8h38.4c7.069 0 12.8 5.73 12.8 12.8v38.4zM336.195 335.279c-21.154 21.154-49.279 32.679-79.195 32.679-29.916 0-58.041-11.462-79.195-32.616-21.115-21.115-32.759-49.842-32.803-78.842H64.5v143c0 26.51 22.49 49 49 49h288c26.51 0 47-22.49 47-49v-143h-79.502c-.043 29-11.687 57.664-32.803 78.779z" fill-rule="nonzero"/></g></symbol><symbol viewBox="0 0 24 24" id="iso"><path d="M0 0h24v24H0zm0 0h24v24H0z" fill="none"/><path d="M19 3H5c-1.1 0-2 .9-2 2v14c0 1.1.9 2 2 2h14c1.1 0 2-.9 2-2V5c0-1.1-.9-2-2-2zM5.5 7.5h2v-2H9v2h2V9H9v2H7.5V9h-2V7.5zM19 19H5L19 5v14zm-2-2v-1.5h-5V17h5z"/></symbol><symbol viewBox="0 0 24 24" id="lens"><path d="M0 0h24v24H0z" fill="none"/><path d="M12 2C6.48 2 2 6.48 2 12s4.48 10 10 10 10-4.48 10-10S17.52 2 12 2z"/></symbol><symbol viewBox="0 0 287 287" fill-rule="evenodd" clip-rule="evenodd" stroke-linejoin="round" stroke-miterlimit="1.414" id="logo"><path d="M264.33 143c0-66.98-54.3-121.29-121.29-121.29C76.06 21.7 21.8 76 21.8 143s54.3 121.3 121.3 121.3c66.93 0 121.2-54.3 121.2-121.3h.03zM143.04.31c78.81 0 142.7 63.9 142.7 142.69 0 78.81-63.881 142.7-142.69 142.7C64.23 285.7.3 221.8.3 143 .35 64.2 64.2.3 143 .31h.04z"/><path d="M114.5 43.1h21.4v171.2h-21.4zM150.2 78.8h21.4v164.1h-21.4z"/></symbol><symbol viewBox="0 0 100 100" fill-rule="evenodd" clip-rule="evenodd" stroke-linejoin="round" stroke-miterlimit="1.414" id="spotify"><path d="M79.577 44.326c-16.117-9.572-42.703-10.452-58.088-5.782a4.676 4.676 0 1 1-2.715-8.95c17.662-5.361 47.022-4.325 65.576 6.689a4.676 4.676 0 0 1 1.635 6.407 4.675 4.675 0 0 1-6.408 1.636zm-.528 14.176a3.9 3.9 0 0 1-5.362 1.284C60.25 51.527 39.76 49.135 23.864 53.96a3.903 3.903 0 0 1-4.865-2.596 3.903 3.903 0 0 1 2.6-4.862c18.16-5.51 40.735-2.842 56.168 6.642a3.899 3.899 0 0 1 1.282 5.36zm-6.118 13.615a3.114 3.114 0 0 1-4.285 1.037c-11.742-7.176-26.52-8.796-43.925-4.821a3.115 3.115 0 0 1-3.73-2.343 3.113 3.113 0 0 1 2.343-3.731c19.046-4.354 35.384-2.48 48.563 5.573a3.117 3.117 0 0 1 1.034 4.285zM50.001 0C22.385 0 0 22.386 0 50c0 27.616 22.386 50 50 50 27.615 0 50-22.384 50-50 0-27.614-22.385-50-50-50z" fill="#fff" fill-rule="nonzero"/></symbol><symbol viewBox="0 0 100 100" fill-rule="evenodd" clip-rule="evenodd" stroke-linejoin="round" stroke-miterlimit="1.414" id="spotify-brand"><path d="M79.577 44.326c-16.117-9.572-42.703-10.452-58.088-5.782a4.676 4.676 0 1 1-2.715-8.95c17.662-5.361 47.022-4.325 65.576 6.689a4.676 4.676 0 0 1 1.635 6.407 4.675 4.675 0 0 1-6.408 1.636zm-.528 14.176a3.9 3.9 0 0 1-5.362 1.284C60.25 51.527 39.76 49.135 23.864 53.96a3.903 3.903 0 0 1-4.865-2.596 3.903 3.903 0 0 1 2.6-4.862c18.16-5.51 40.735-2.842 56.168 6.642a3.899 3.899 0 0 1 1.282 5.36zm-6.118 13.615a3.114 3.114 0 0 1-4.285 1.037c-11.742-7.176-26.52-8.796-43.925-4.821a3.115 3.115 0 0 1-3.73-2.343 3.113 3.113 0 0 1 2.343-3.731c19.046-4.354 35.384-2.48 48.563 5.573a3.117 3.117 0 0 1 1.034 4.285zM50.001 0C22.385 0 0 22.386 0 50c0 27.616 22.386 50 50 50 27.615 0 50-22.384 50-50 0-27.614-22.385-50-50-50z" fill="#1db954" fill-rule="nonzero"/></symbol><symbol viewBox="0 0 100 100" fill-rule="evenodd" clip-rule="evenodd" stroke-linejoin="round" stroke-miterlimit="1.414" id="twitter"><path d="M100 18.942a41.478 41.478 0 0 1-11.782 3.242c4.238-2.543 7.501-6.57 9.027-11.358a40.766 40.766 0 0 1-13.032 4.98C80.462 11.8 75.122 9.3 69.23 9.3c-11.337 0-20.513 9.197-20.513 20.534 0 1.61.17 3.179.53 4.683-17.059-.847-32.19-9.027-42.297-21.466a20.537 20.537 0 0 0-2.776 10.32c0 7.12 3.644 13.414 9.154 17.1a20.038 20.038 0 0 1-9.324-2.563v.254c0 9.96 7.078 18.245 16.465 20.131-1.716.467-3.538.72-5.403.72-1.314 0-2.607-.126-3.857-.38 2.606 8.158 10.193 14.091 19.178 14.26a41.134 41.134 0 0 1-25.493 8.795c-1.653 0-3.285-.106-4.895-.297 9.049 5.891 19.835 9.282 31.405 9.282 37.783 0 58.423-31.299 58.423-58.444 0-.89-.021-1.78-.063-2.65A41.764 41.764 0 0 0 100 18.943z" fill="#fff" fill-rule="nonzero"/></symbol><symbol viewBox="0 0 100 100" fill-rule="evenodd" clip-rule="evenodd" stroke-linejoin="round" stroke-miterlimit="1.414" id="wordpress"><g transform="matrix(.26042 0 0 .26042 -16.667 -16.667)" fill="#fff" fill-rule="nonzero"><path d="M259 271.3L226.2 367h-.1l-25.4 73.1c1.8.5 3.5.9 5.3 1.4h.3c15.8 4.2 32.4 6.5 49.5 6.5 8.5 0 16.8-.5 24.9-1.8 11.2-1.4 22-3.8 32.5-7.1 2.6-.8 5.2-1.7 7.8-2.6-2.8-6-8.8-19.3-9.1-19.9L259 271.3zM80.8 180.5C70.8 203.1 64 230.9 64 256c0 6.3.3 12.6.9 18.8 6.9 71.2 52.9 131 116.1 157.9 2.6 1.1 5.3 2.2 8 3.2L96 180.6c-8-.3-9.5.2-15.2-.1z"/><path d="M430.2 175.4c-4.3-9.3-9.4-18.2-15.1-26.6-1.6-2.4-3.4-4.8-5.1-7.2-21.5-28.8-50.8-51.4-84.9-64.6-21.4-8.4-44.8-13-69.2-13-60.3 0-114.2 28-149.4 71.7-6.5 8-12.3 16.6-17.5 25.6 14.2.1 31.8.1 33.8.1 18.1 0 46-2.2 46-2.2 9.4-.6 10.4 13.1 1.1 14.2 0 0-9.4 1.1-19.8 1.6L213 362l37.8-113.3-26.8-73.6c-9.4-.5-18.1-1.6-18.1-1.6-9.4-.5-8.2-14.8 1-14.2 0 0 28.5 2.2 45.5 2.2 18.1 0 46-2.2 46-2.2 9.3-.6 10.5 13.1 1.1 14.2 0 0-9.3 1.1-19.7 1.6l62.3 185.6 17.3-57.6c8.7-22.4 13.1-40.9 13.1-55.7 0-21.3-7.7-36.1-14.3-47.6-8.7-14.3-16.9-26.3-16.9-40.4 0-15.9 12-30.7 29-30.7h2.2c26.2-.7 34.8 25.3 35.9 43v.6c.4 7.2.1 12.5.1 18.8 0 17.4-3.3 37.1-13.1 61.8l-39 112.8-22.3 65.7c1.8-.8 3.5-1.6 5.3-2.5 56.7-27.4 98-82 106.7-146.7 1.3-8.5 1.9-17.2 1.9-26 0-28.9-6.4-56.3-17.8-80.8z"/></g></symbol></svg>